<svg version="1.0" xmlns="http://www.w3.org/2000/svg" width="560" height="560" viewBox="0 0 420 420"><path d="M208 12.4c-9 1.6-17.1 3.6-18.5 4.7-.5.4-4 1.9-7.7 3.4-13 5.2-35.5 20.1-44.2 29.3-1.8 1.9-4.6 3.5-7.6 4.2-6.8 1.6-18.8 9-26.5 16.1-12.1 11.4-20 24.1-26.5 42.7-3.2 9.1-3.3 9.2-7.4 10.2-7.7 2-10.1 3-15.3 6.6-6.4 4.4-9.4 8.2-12.1 15.7-4.5 11.9-2.1 31.1 5.9 47 4.6 9.4 7.7 13.5 18.2 24.4l7.9 8.1 3.9 14.9c13.3 51.1 30.7 79.3 49.2 79.3 4.7 0 8.7-2.4 8.7-5.2 0-.7 1.6 1.3 3.5 4.4 4.4 7 14.2 13.8 21 14.6l4.5.5-.6 10.6c-.3 5.8-.7 11.1-.9 11.7-.2.6-2.6 1.4-5.5 1.8-8.8 1.2-27.2 6.2-34 9.3-7.6 3.5-13.2 8.1-15 12.3-1 2.5-.9 3.4.7 6.2 8.5 14.6 47.9 24 99.8 24s91.3-9.4 99.8-24c1.6-2.8 1.7-3.7.7-6.2-2.8-6.7-13.7-13.1-29.8-17.4l-8.6-2.3-2.9-6.9c-1.6-3.8-4.4-10.7-6.3-15.3l-3.4-8.3 3.2-4.1 3.2-4 1.7 4.1c3.2 7.4 9.8 9.3 17.8 5.2 5.7-2.8 10.5-8.9 16.1-20 2.8-5.5 5.4-10 5.8-10 .4 0 1.3.9 2 2 1.3 2.2 5.4 2.6 9.7 1 5.8-2.2 9.3-6.3 14-16.4 2.6-5.6 5.1-10.9 5.7-11.9 1.1-2.2 6.1-19.1 7.7-26.2 4.1-18.4 5.1-23.1 6.5-32.5.9-5.8 2.1-12.8 2.6-15.5 1.6-8.4 3.1-25.2 3.7-41.5 1.1-30.8-4.4-59.9-15-79-14.5-26.1-36-44.4-68.7-58.2-16.4-6.9-29.4-9.8-45.5-10.3-8.8-.3-16.8.1-21.5.9zm38.2 5.1c23.8 4.1 55.3 20.1 72.6 36.9 3 2.8 5.8 5.9 6.3 6.9 1 1.7.9 1.7-1.8.3-15.3-7.9-44.2-5-60.4 6.1-4.4 3-4.6 3-21.4 3.6-9.3.4-20.2 1.3-24.1 2.1-34.5 7-64 5-74.6-5.1-2.3-2.2-3-2.4-5.6-1.5-14.5 5-31.6 28.2-40.2 54.5-1.8 5.5-2.5 6.7-3.9 6.2-.9-.4-4.2-1.6-7.4-2.7s-6.1-2.6-6.3-3.3c-.7-1.7 1.7-9.5 5.5-17.8 8-17.7 23.5-35.2 37.1-41.9 4.1-2 9.2-3.9 11.4-4.3 2.8-.5 4.9-1.8 7.5-4.7 6.6-7.4 20.4-17.5 31.6-23.1 13-6.5 27-11.7 34-12.7 9.3-1.3 31-1 39.7.5zM143.8 74.4c9.3 5.7 16.1 7 35.7 6.9 13.1 0 20.8-.7 33.5-2.6 19.5-3.1 35.8-4.3 38-2.8 1.2.9.6 2-3.9 6.5-5.8 5.9-8.2 6.8-15.2 5.7-7.7-1.2-19.2.4-26.3 3.7-8.6 4-19.6 14.8-23.3 22.8-3 6.7-4.3 19.2-2.5 25.6.8 2.8.7 4-.2 4.7-1.6 1.4-1.9 1-5.1-5.4-6.3-13-18.2-21.2-34.2-23.6-12.6-1.9-24.9 1-34.5 8.3-5.9 4.4-6.2 4.5-5.5 1.1 1.4-6.8 13.9-32 19-38 6.6-8 9.6-10.9 13.6-13.5 2.5-1.5 4.7-2.8 4.9-2.8.2 0 2.9 1.5 6 3.4zM284 79.3c0 1.5 2.4 4.6 7.1 9.2 8.6 8.4 10.9 13.1 10.9 22.1 0 7.7-1.3 11.2-7.4 19.8-3.9 5.4-4.6 7.1-4.6 11.1 0 4.6.2 5 7.8 12.4 6.3 6.2 8.1 8.6 9.5 13 2.1 6.6 2.2 12.7.2 18.6-.9 2.5-1.3 5-1 5.5.3.5-1.4 3-3.9 5.4-5.4 5.5-9.3 6.3-22.6 4.7-9-1.1-22.7-4.4-26.2-6.3-2.2-1.1-2.4-2.8-.3-2.8.8 0 2.6-2 4.1-4.6 2.2-3.7 2.6-5.3 2.1-9.1-.4-4-1.3-5.4-7.6-11.7-8.1-8.1-11.1-14.3-11.1-22.7 0-5.9 4.1-15.3 9-20.8 2.6-2.9 3-4.1 3-9.2 0-5.3-.3-6-3-8l-2.9-2.2 2.7-3.4c7.2-8.9 9.8-11.5 15-15 5.5-3.6 15.5-8.2 18-8.3.6 0 1.2 1 1.2 2.3zm-160.9 52.4c0 .5.2 2.1.3 3.6.1 2.1 1.9 4.4 6.3 8.5 7.5 6.9 9.3 10.4 9.3 17.8 0 4.7-.7 6.8-4.1 13-3.7 6.9-4 7.7-2.9 10.9.7 2 2.9 4.8 5.3 6.7 4.6 3.6 8.6 7.8 8.7 9.1 0 .4.9 2.6 1.9 4.8 2.8 5.8 1.1 9.2-10.1 19.7-7.1 6.6-17.3 12.2-22.3 12.2-5.2 0-14.8-5.9-11.6-7.2.5-.2 2.5-3.4 4.6-7.1 5-9.2 4.5-11.7-3.5-18.7-7.5-6.5-9.3-9.8-9.4-17.5-.1-5.2.4-6.9 3.8-12.9 3.1-5.6 3.7-7.5 3.2-10.5-.3-2-1.5-4.4-2.8-5.4-9.4-7.7-12.1-11.3-13.3-18l-.7-3.7 2.8 1c1.6.6 4.5 2 6.5 3.2l3.7 2 5.3-3.9c8.1-6 18.7-10.2 19-7.6zM354.9 150c.1 25.8-3.2 52.8-10.8 88-6.6 30.7-16.8 55.5-25.4 61.5-6 4.2-10.3-.9-9.1-11 .6-5.1.5-5.5-1.4-5.5-1.6 0-2.3.8-2.8 3.7-1 5.7-6 18.8-10.1 26.5-3.8 7.2-9.5 13-15.2 15.5-3.1 1.3-3.6 1.3-6-.5-3.7-2.7-5.1-5.9-5.1-12 0-4.5-.3-5.3-1.7-5-1 .2-2.5 1.7-3.3 3.4-2.4 4.9-6.2 9.6-7 8.7-.8-.9-8-20.1-8-21.3 0-.4 2.2-1 4.9-1.3 9.6-1.1 21.5-9.7 26.2-18.9 3.3-6.4 3.8-17.1 1.1-22.5-2.6-5-8.9-10.5-16-14-2.9-1.4-5.1-2.7-4.9-2.9.2-.2 4.6-2.7 9.8-5.5 13.1-7.1 22.5-14.3 36.2-28.1 6.6-6.5 12.3-11.8 12.8-11.8.9 0 9.7-10.9 14.6-18 6.1-9 13.3-24.6 16.5-36 3.9-13.8 4.6-12.8 4.7 7zm-159 19.6c20.9 24.4 57 40 90.6 39.2 9.1-.2 12.5 0 12.5.9 0 1.7-12 11.5-23.6 19.2-6.3 4.2-15 8.7-23.5 12.2-25.7 10.7-34 12.4-60.9 12.4-17 0-20.9-.3-29.9-2.4-11-2.5-26.3-8.1-26.8-9.8-.2-.6 1.6-2.2 4.1-3.7 5.8-3.4 21.4-18.8 24.6-24.4 1.4-2.4 4.2-7 6.3-10.4 5.1-8 9.4-21.4 10.3-31.3.7-8.6 1.8-10.5 6.3-10.5 2 0 4.3 2 10 8.6zm-112 61.8c2.5 2.3 17.5 9.5 23.2 11.2 3.4 1 8.1 1.5 13.3 1.3 7.1-.3 8.7 0 13.2 2.3 2.8 1.5 8.1 3.6 11.7 4.8 3.7 1.2 6.7 2.6 6.7 3 0 .5-1.7 2.3-3.8 4-6.9 5.5-10.2 14.7-8.2 22.2 1.5 5.1 6.1 11 11.6 14.6 4.2 2.9 5.5 3.2 12 3.2h7.4l-.6 2.7c-.2 1.6-1.5 8.4-2.7 15.3-2.2 12-2.4 12.5-4.9 12.8-3.6.4-11.8-3.9-15.6-8.2-4.2-4.8-8.3-11.9-10.2-18-1-2.9-2.4-5.2-3.3-5.4-1.3-.3-1.5.9-1.5 7.2.1 6.1-.3 8-1.8 9.7-6.2 6.8-21.3-6.9-32.4-29.6-6.3-12.9-9.2-20.8-14.5-40.4-3.8-13.9-3.7-16.4.4-12.7zm182.6 18c1.7.9.8 1.2-5.5 1.7-4.1.3-9.8 1.5-12.6 2.7-3.8 1.5-5.4 1.8-6.3.9-1.7-1.7-1.4-2.3 2-3.7 8.6-3.6 17.7-4.3 22.4-1.6zM232 254c0 .5-1.4 1-3.1 1-1.7 0-2.8-.4-2.4-1 .3-.6 1.7-1 3.1-1 1.3 0 2.4.4 2.4 1zm9 4.2c2.3 3.7 2.5 7.5.8 11.3-2.1 4.7-2.4 4.2-5.4-11.8-.8-3.9 2.1-3.6 4.6.5zm33.8-1.6c4.5 3.1 2.7 3.9-9 3.9-6.2 0-13.2.4-15.5.8-3.9.8-4.3.7-4.3-1.1 0-3.2 6.4-4.8 19-5.1 5.4-.1 8.2.3 9.8 1.5zm-109.7 1.5c5.8 1 6.9 1.5 6.9 3.2 0 1.8-.5 1.9-5.5 1.4-5.9-.6-10.6-2.5-11.3-4.5-.5-1.5 1-1.5 9.9-.1zm45.4.4c22.1.1 23 .2 23 2 0 1.7-.9 2.1-5.5 2.7-7.3.8-33.3.8-39 0-4-.6-4.5-1-4.8-3.6-.3-2.5-.1-2.8 1.5-2.1 1 .5 12.2.9 24.8 1zM178 269.6c-.7 4.1-1.6 7.7-2 7.9-.4.2-1.5-1.3-2.5-3.5-2.1-4.7-1.5-8.1 2.2-11.8 3.5-3.5 3.9-2 2.3 7.4zm-24.2-6.2c1.5.8 5.5 2 9 2.6 4.3.9 6.2 1.7 6.2 2.8 0 1.2-1 1.4-6 .9-7.6-.8-15.8-4.7-14.4-6.8.7-1.3 2.1-1.1 5.2.5zm123.5 2.5c4.4 1.7 3.4 3.4-1.5 2.4-2.4-.4-10-.8-17.1-.7-8.5 0-12.6-.3-12.4-1 .2-.6 1.4-1.4 2.8-1.8 3.4-1 24.9-.2 28.2 1.1zm-64.4 2.4c8.5 0 17.2-.4 19.3-.7 3.5-.6 3.8-.4 3.8 1.8s-.6 2.5-7.2 3.6c-7.3 1.3-39.4.8-45-.6-2.7-.6-3.7-3.1-2.1-4.8.4-.4 4.1-.4 8.3.1 4.1.4 14.4.7 22.9.6zm-61.1 1.3c2 .8 6.6 1.8 10.1 2.1l6.4.6 2 4.6c3.9 8.6 1.8 15.8-4.9 17.5-11.3 2.9-25.7-14.5-20.4-24.5 1.3-2.3 2-2.3 6.8-.3zm123.9 1.9c1.2.4 2.4 1.3 2.6 2 .9 2.1-3.5 9.7-8.4 14.6-11.9 12.1-31.9 11.6-31.9-.7 0-2.7 6.2-15.2 8.4-16.7 1.2-.9 25.9-.2 29.3.8zm-84.2 6c14.1 1.8 24.8 1.9 36.8.4 4.9-.6 9.1-.8 9.5-.5.3.4-.3 1.6-1.4 2.7-2.9 2.8-17.2 4.3-35.9 3.6-17.2-.6-21.5-1.7-21.5-5.3 0-1.3.1-2.4.3-2.4.1 0 5.6.7 12.2 1.5zm3 10.1c11.6 1.6 20.3 1.5 35-.2 5.1-.6 5.5-.5 5.5 1.4 0 1.1-.4 2.3-.9 2.6-.4.3-6.8 1.1-14.2 1.7-15.9 1.5-40.2.1-42.6-2.4-2.2-2.2.1-6.1 3-5.3 1.2.3 7.6 1.3 14.2 2.2zm-5 9.5c8.5 1.2 30.5 1.1 40.2-.2 6.5-1 8.6-.9 9.8.1 2.5 2.1 1.8 2.7-4.7 3.9-11.9 2.2-34.2 2.4-47.3.4-11.3-1.7-12-1.9-12.3-4.2-.4-2.3-.2-2.4 4-1.7 2.3.4 7 1.2 10.3 1.7zm-.3 8.5c14.5 1.7 38 1.4 49.6-.7 4.7-.8 6.7-.8 7.5 0 .7.7.8 1.4.1 2.1-1.8 1.8-28.1 3.2-47.9 2.6-23-.8-25.5-1.2-25.5-3.7 0-2.3-.4-2.3 16.2-.3zm24.5 18.4c1.2 5.2 2.2 10.3 2.3 11.2 0 3.6-8.8 9.4-11 7.2-.5-.5-1.2-7.1-1.6-14.7l-.7-13.8 4.4.3 4.3.3 2.3 9.5zm-30.7 2.1c4.1.6 9.6.8 12.3.5l4.7-.5v14.3c0 15.9-1.4 22.5-5.6 27.6-6.1 7.2-12.1 7.8-18.7 2-6.2-5.5-8-11.2-7.8-24.2.1-9.3 1.4-18.8 2.7-21 .3-.5 1.6-.7 2.8-.4 1.1.3 5.5 1.1 9.6 1.7zm77.7 17.4c6 14.3 7.6 19.4 8 24.7.7 8.3.1 10.9-3.8 15.3-2.8 3.2-3.6 3.5-8.3 3.5-9.4 0-18.4-7.8-25.6-22-4.6-9.2-9.5-23.2-10.5-30.1l-.7-4.6 9.9-.5c6.1-.4 11.9-1.3 15.3-2.6 3-1.1 6.1-1.9 6.9-1.8.7 0 4.5 7.8 8.8 18.1zm-40.3 3.9c1 3.2 1.6 5.9 1.4 6-.2.1-4.2 0-9-.2l-8.8-.4V350c0-2.4.5-2.8 3.9-3.4 2.2-.3 5-1.7 6.7-3.4 1.6-1.5 3.2-2.5 3.5-2.2.4.3 1.4 3.1 2.3 6.4z"/><path d="M206.7 198c-.3.8-1.3 3.9-2.2 6.7-2 6.4-5.3 9.3-10.6 9.3-5.1 0-5 1.6 0 2.5 7.1 1.2 12.6-3.4 14.1-11.7.8-4.3-.3-9.8-1.3-6.8zM173.8 354.5c-1.6.9-2.8 2-2.8 2.5 0 1.9 2.2 2 6.9.3 4.9-1.7 5.1-1.7 10 .4 5.7 2.4 7.7 1.4 4.2-2-2.8-2.8-14.2-3.5-18.3-1.2zM251.5 366.2c-2.6 1.4-8.5 7-8.5 8 0 1.7 3.3.6 7-2.3 3.5-2.8 4.4-3.1 9-2.7 5.5.6 7.4-.7 4.5-2.9-2.2-1.6-9.2-1.7-12-.1z"/></svg>