<svg xmlns="http://www.w3.org/2000/svg" height="512" viewBox="0 -24 384 384" width="512"><path d="M328 264H56c0-75.121 60.879-136 136-136s136 60.879 136 136zm0 0" fill="#c2dae8"/><g fill="#282828"><path d="M16 280h352c8.832 0 16-7.168 16-16s-7.168-16-16-16h-24.855C335.12 171.68 270.406 112 192 112S48.879 171.68 40.855 248H16c-8.832 0-16 7.168-16 16s7.168 16 16 16zm176-136c60.734 0 110.945 45.39 118.809 104H73.19C81.055 189.39 131.266 144 192 144zm0 0M80 304c-8.832 0-16 7.168-16 16s7.168 16 16 16h224c8.832 0 16-7.168 16-16s-7.168-16-16-16zm0 0M176 16v48c0 8.832 7.168 16 16 16s16-7.168 16-16V16c0-8.832-7.168-16-16-16s-16 7.168-16 16zm0 0M38.61 123.313A15.938 15.938 0 0049.921 128c4.086 0 8.183-1.559 11.308-4.688 6.25-6.25 6.25-16.374 0-22.624L27.313 66.77c-6.25-6.25-16.375-6.25-22.625 0-6.247 6.246-6.247 16.375 0 22.62zm0 0M356.688 66.77l-33.918 33.918c-6.25 6.25-6.25 16.374 0 22.624A15.91 15.91 0 00334.078 128c4.098 0 8.188-1.559 11.313-4.688l33.921-33.921c6.247-6.246 6.247-16.375 0-22.621-6.25-6.258-16.375-6.258-22.625 0zm0 0"/></g></svg>